<svg height="85.333328" viewBox="0 0 85.333328 85.333328" width="85.333328" xmlns="http://www.w3.org/2000/svg"><g transform="matrix(.13333333 0 0 -.13333333 0 85.333331)"><path d="m640 320c0-176.73-143.27-320-320-320s-320 143.27-320 320 143.27 320 320 320 320-143.27 320-320" fill="#7db6d8"/><path d="m431.695 140c-1.136 0-2.269.152-3.359.523-2.27.743-5.262 1.551-8.883 2.551-47.043 13.028-190.164 52.633-259.027 266.297-.613 1.899-.699 3.93-.219 5.895.348 1.394 9.031 35 66.77 44.578.605.105 1.218.156 1.832.156 1.546 0 3.093-.336 4.515-1.008 2.117-.961 52.129-24.484 56.297-72.422.285-3.054-.762-6.109-2.836-8.355-16.387-17.766-30.637-39.606-29.871-45.824 1.309-11.063 36.024-69.387 98.191-99.786 9.274 1.461 30.766 15.625 46.325 28.911 1.984 1.691 4.449 2.632 7.004 2.632.875 0 1.761-.113 2.64-.339 49.317-11.957 67.098-45.801 67.84-47.243 1.047-2.05 1.418-4.406 1.047-6.675-8.313-52.239-42.309-68.254-43.75-68.911-1.418-.652-2.969-.98-4.516-.98" fill="#6594b2"/><path d="m289.621 406.57c-4.168 47.938-54.18 71.461-56.297 72.422-1.984.938-4.211 1.223-6.347.852-57.739-9.578-66.422-43.184-66.77-44.578-.48-1.965-.394-3.996.219-5.895 68.863-213.664 211.984-253.266 259.027-266.297 3.621-1 6.613-1.808 8.883-2.551 1.09-.371 2.223-.523 3.359-.523 1.547 0 3.098.328 4.516.98 1.441.657 35.437 16.672 43.75 68.911.371 2.269 0 4.625-1.047 6.675-.742 1.442-18.523 35.286-67.84 47.243-3.445.894-6.98-.024-9.644-2.293-15.559-13.286-37.051-27.45-46.325-28.911-62.167 30.399-96.882 88.723-98.191 99.786-.762 6.218 13.484 28.058 29.871 45.824 2.074 2.246 3.121 5.301 2.836 8.355" fill="#fff"/></g></svg>