<svg height="85.333328" viewBox="0 0 85.333328 85.333328" width="85.333328" xmlns="http://www.w3.org/2000/svg"><g transform="matrix(.13333333 0 0 -.13333333 0 85.333331)"><path d="m640 320c0-176.73-143.27-320-320-320s-320 143.27-320 320 143.27 320 320 320 320-143.27 320-320" fill="#77caa9"/><path d="m320 80s-170 105.004-170 252c0 92.785 76.109 168 170 168s170-75.215 170-168c0-149.629-170-252-170-252m0 340c-44.184 0-80-35.816-80-80s35.816-80 80-80 80 35.816 80 80-35.816 80-80 80" fill="#62a48d"/><path d="m320 280c-44.184 0-80 35.816-80 80s35.816 80 80 80 80-35.816 80-80-35.816-80-80-80zm0 240c-93.891 0-170-75.215-170-168 0-146.996 170-252 170-252s170 102.371 170 252c0 92.785-76.109 168-170 168" fill="#fff"/></g></svg>